<svg xmlns="http://www.w3.org/2000/svg" id="Capa_1" height="512" viewBox="0 0 512 512" width="512"><g><g><path d="m4.849 14.516c.725.274 73.525 27.567 162.342 40.547.368.054.733.08 1.094.08 3.662 0 6.867-2.686 7.412-6.416.599-4.099-2.238-7.907-6.337-8.506-87.133-12.733-158.496-39.467-159.207-39.735-3.873-1.463-8.202.49-9.667 4.364-1.464 3.873.489 8.201 4.363 9.666z"></path><path d="m464.515 364.335c-7.018-15.918-18.16-25.708-32.02-28.268v-79.243c44.443-11.414 74.297-22.627 74.657-22.763 3.874-1.465 5.826-5.793 4.361-9.667-1.463-3.874-5.79-5.827-9.667-4.364-.402.152-38.555 14.471-92.785 27.088 1.832-7.458 2.799-15.147 2.799-22.91v-17.913c0-53.033-43.144-96.177-96.176-96.177h-19.461c-4.98-17.788-16.585-28.887-32.723-31.465v-16.769c121.797-1.814 242.422-46.903 243.652-47.368 3.874-1.465 5.826-5.793 4.361-9.667-1.465-3.875-5.79-5.826-9.667-4.364-1.229.466-124.356 46.462-245.846 46.462-16.749 0-34.477-.879-52.693-2.612-4.124-.393-7.784 2.632-8.177 6.756s2.632 7.784 6.756 8.177c15.997 1.522 31.637 2.397 46.614 2.618v16.766c-16.139 2.579-27.749 13.678-32.735 31.465h-19.449c-53.032 0-96.177 43.145-96.177 96.177v17.913c0 7.89.962 15.559 2.762 22.902-54.213-12.617-92.342-26.927-92.748-27.08-3.873-1.461-8.202.49-9.667 4.364-1.464 3.874.488 8.202 4.362 9.667.363.137 30.211 11.348 74.656 22.763v79.243c-13.864 2.559-25.003 12.348-32.022 28.269-26.783 3.688-47.482 26.711-47.482 54.491v9.6c0 30.338 24.682 55.02 55.02 55.02h9.85v21.054c0 4.142 3.358 7.5 7.5 7.5s7.5-3.358 7.5-7.5v-21.054h14.266v21.054c0 4.142 3.358 7.5 7.5 7.5s7.5-3.358 7.5-7.5v-21.054h9.851c30.338 0 55.02-24.682 55.02-55.02v-9.6c0-27.781-20.7-50.804-47.484-54.491-7.022-15.908-18.178-25.701-32.02-28.266v-75.528c4.605 1.1 9.331 2.19 14.167 3.261 14.361 31.665 45.395 54.218 81.829 56.402v17.172c0 7.173 5.836 13.009 13.009 13.009h6.361v153.601c0 4.142 3.358 7.5 7.5 7.5s7.5-3.358 7.5-7.5v-153.6h23.631v153.601c0 4.142 3.358 7.5 7.5 7.5 4.143 0 7.5-3.358 7.5-7.5v-153.601h23.63v153.601c0 4.142 3.357 7.5 7.5 7.5s7.5-3.358 7.5-7.5v-153.601h6.361c7.173 0 13.009-5.836 13.009-13.009v-17.17c13.988-.849 27.698-4.745 39.969-11.398 3.642-1.975 4.992-6.527 3.018-10.168-1.975-3.641-6.526-4.992-10.168-3.018-10.613 5.755-22.51 9.056-34.632 9.655 5.9-4.221 11.503-9.278 16.693-15.13 15.675-17.675 25.033-40.066 25.033-59.895v-30c0-19.829-9.358-42.22-25.033-59.895-5.194-5.856-10.799-10.915-16.703-15.137 42.913 2.089 77.184 37.653 77.184 81.076v17.913c0 18.814-6.582 37.152-18.533 51.633-2.637 3.195-2.185 7.922 1.011 10.559 3.191 2.634 7.92 2.185 10.558-1.011 5.443-6.595 9.935-13.868 13.417-21.584 4.841-1.072 9.572-2.163 14.182-3.264v75.527c-13.86 2.56-25.001 12.349-32.019 28.268-26.784 3.687-47.484 26.71-47.484 54.491v9.6c0 30.338 24.681 55.02 55.02 55.02h9.851v21.051c0 4.142 3.357 7.5 7.5 7.5s7.5-3.358 7.5-7.5v-21.054h14.266v21.054c0 4.142 3.357 7.5 7.5 7.5s7.5-3.358 7.5-7.5v-21.054h9.851c30.339 0 55.02-24.682 55.02-55.02v-9.6c-.002-27.78-20.703-50.804-47.486-54.491zm-449.513 64.091v-9.6c0-22.067 17.953-40.02 40.02-40.02h2.766c-6.873 10.596-10.705 24.947-10.705 36.746l-.077 16.112c0 11.603 3.976 26.083 10.968 36.782h-2.952c-22.067 0-40.02-17.953-40.02-40.02zm65.733 40.02c-7.832 0-18.729-18.535-18.729-36.746l.077-16.112c0-18.247 10.852-36.782 18.652-36.782h12.541c7.832 0 18.729 18.535 18.729 36.782v16.076c0 18.247-10.897 36.782-18.729 36.782zm78.273-49.62v9.6c0 22.067-17.953 40.02-40.02 40.02h-2.952c6.993-10.698 10.968-25.179 10.968-36.782v-16.076c0-11.603-3.976-26.083-10.968-36.782h2.952c22.067 0 40.02 17.953 40.02 40.02zm-49.678-55.02h-44.628c4.631-7.258 11.687-13.42 22.303-13.42 9.24 0 16.715 4.52 22.325 13.42zm146.67-270.737c11.899 0 20.083 5.741 24.437 17.048h-48.883c4.359-11.306 12.546-17.048 24.446-17.048zm7.181 212.317h-14.361c-2.517 0-8.579-6.139-14.131-22.611-5.263-15.612-8.404-35.247-8.404-52.501l.088-30.022c0-17.295 3.126-36.934 8.363-52.532 6.194-18.45 12.399-22.602 14.084-22.602h14.361c2.517 0 8.578 6.139 14.131 22.611 5.263 15.612 8.404 35.247 8.404 52.523v30c0 17.276-3.142 36.912-8.404 52.523-5.553 16.472-11.615 22.611-14.131 22.611zm-35.235-179.477c-2.704 4.679-5.191 10.37-7.43 17.038-5.725 17.053-9.143 38.476-9.143 57.284l-.088 30.022c0 18.817 3.436 40.243 9.19 57.314 2.246 6.663 4.739 12.35 7.448 17.027-14.811-2.492-29.131-10.925-41.079-24.399-13.111-14.784-21.256-33.921-21.256-49.884l.233-30.059c0-16.042 8.104-35.184 21.149-49.954 11.898-13.471 26.182-21.901 40.976-24.389zm-112.807 98.299v-17.913c0-43.429 34.281-78.997 77.204-81.077-24.928 17.756-41.523 48.207-41.523 74.975l-.233 30.059c0 19.829 9.358 42.22 25.034 59.895 5.193 5.856 10.799 10.915 16.703 15.137-42.914-2.089-77.185-37.653-77.185-81.076zm191.361 111.178h-101v-15h101zm18.657-185.077c13.111 14.784 21.256 33.921 21.256 49.943v30c0 16.021-8.144 35.159-21.256 49.943-11.949 13.473-26.268 21.906-41.079 24.398 2.708-4.677 5.202-10.363 7.448-17.026 5.755-17.071 9.19-38.497 9.19-57.314v-30c0-18.817-3.436-40.243-9.19-57.314-2.246-6.663-4.739-12.35-7.448-17.026 14.81 2.49 29.13 10.923 41.079 24.396zm99.838 200.077c10.62 0 17.675 6.171 22.302 13.42h-44.605c4.628-7.249 11.683-13.42 22.303-13.42zm-72.003 78.04v-9.6c0-22.067 17.953-40.02 40.02-40.02h2.766c-6.873 10.596-10.705 24.947-10.705 36.746l-.077 16.112c0 11.603 3.976 26.083 10.968 36.782h-2.952c-22.067 0-40.02-17.953-40.02-40.02zm65.733 40.02c-7.833 0-18.729-18.535-18.729-36.746l.077-16.112c0-18.247 10.852-36.782 18.652-36.782h12.541c7.833 0 18.729 18.535 18.729 36.782v16.076c0 18.247-10.896 36.782-18.729 36.782zm78.274-40.02c0 22.067-17.953 40.02-40.02 40.02h-2.952c6.992-10.698 10.968-25.179 10.968-36.782v-16.076c0-11.603-3.976-26.083-10.968-36.782h2.952c22.067 0 40.02 17.953 40.02 40.02z"></path></g></g></svg>