<svg xmlns="http://www.w3.org/2000/svg" id="Capa_1" height="512" viewBox="0 0 511.991 511.991" width="512"><path d="m510.417 238.81-16.646-41.034c4.502-5.312 7.229-12.194 7.229-19.708 0-14.16-9.661-26.09-22.693-29.457-.002-1.973.002-51.395 0-53.491 0-6.813-4.16-12.655-10.598-14.884l-210.857-72.995c-8.699-3.013-18.28-3.012-26.98 0l-52.499 18.174c-3.914 1.354-5.989 5.626-4.634 9.54 1.355 3.916 5.626 5.988 9.541 4.634l52.499-18.174c5.533-1.917 11.629-1.917 17.165 0l210.857 72.994c.225.078.505.176.505.71s-.28.632-.505.71l-72.587 25.129v-2.246c0-9.087-6.492-16.847-15.437-18.45-87.201-15.64-175.631-15.64-262.832 0-8.944 1.604-15.437 9.363-15.437 18.45v2.246l-72.586-25.129c-.225-.078-.505-.176-.505-.71s.28-.632.505-.71l124.676-43.16c3.914-1.354 5.989-5.626 4.634-9.54-1.355-3.915-5.627-5.988-9.541-4.634l-124.676 43.161c-6.438 2.229-10.598 8.07-10.598 14.884s4.16 12.655 10.598 14.884l77.494 26.827v74.226c-39.285 3.911-70.067 37.15-70.067 77.447 0 26.928 13.75 50.701 34.593 64.681-34.867 7.704-61.035 38.839-61.035 75.989 0 42.918 34.917 77.835 77.835 77.835h385.523c12.884 0 23.365-10.481 23.365-23.365 0-12.725-10.226-23.099-22.891-23.353-7.836-20.138-7.896-42.063-.181-62.229 12.749-.158 23.072-10.572 23.072-23.358 0-12.884-10.481-23.365-23.365-23.365h-4.631c1-2.599 1.554-5.418 1.554-8.365 0-12.884-10.481-23.365-23.365-23.365h-.202c-7.266-18.839-7.738-39.225-1.415-58.266 3.969 4.296 9.553 6.793 15.485 6.793h40.044c7.027 0 13.575-3.493 17.515-9.345 3.979-5.907 4.754-13.377 2.074-19.981zm-24.417-60.742c0 8.495-6.816 15.406-15.193 15.406s-15.193-6.911-15.193-15.406 6.816-15.407 15.193-15.407 15.193 6.911 15.193 15.407zm-22.693-66.541v37.084c-13.032 3.367-22.693 15.297-22.693 29.457 0 7.515 2.727 14.396 7.229 19.708l-5.23 12.891h-52.398v-73.836zm-348.714 3.499c85.444-15.322 172.093-15.322 257.537 0 1.787.321 3.084 1.871 3.084 3.687v51.117h-46.214c-4.142 0-7.5 3.357-7.5 7.5s3.358 7.5 7.5 7.5h46.214v25.838h-263.705v-25.838h182.491c4.142 0 7.5-3.357 7.5-7.5s-3.358-7.5-7.5-7.5h-182.491v-51.117c0-1.816 1.297-3.366 3.084-3.687zm357.131 259.677c0 4.612-3.752 8.365-8.365 8.365h-385.524c-25.422 0-46.105 20.683-46.105 46.105s20.683 46.104 46.105 46.104h296.165c4.142 0 7.5-3.357 7.5-7.5s-3.358-7.5-7.5-7.5h-296.165c-17.151 0-31.105-13.953-31.105-31.104s13.954-31.105 31.105-31.105h236.535v42.042c0 2.479 1.225 4.798 3.273 6.195 2.047 1.397 4.653 1.694 6.962.788l20.249-7.929 20.249 7.929c.884.347 1.811.517 2.734.517 1.488 0 2.964-.442 4.228-1.305 2.048-1.397 3.273-3.716 3.273-6.195v-42.042h72.397c-6.518 20.321-6.471 41.909.148 62.21h-38.883c-4.142 0-7.5 3.357-7.5 7.5s3.358 7.5 7.5 7.5h54.358c4.613 0 8.365 3.753 8.365 8.365s-3.752 8.365-8.365 8.365h-385.523c-34.647.001-62.835-28.187-62.835-62.835s28.188-62.835 62.835-62.835h385.523c4.613 0 8.366 3.753 8.366 8.365zm-142.354 23.366h30.968v31.051l-12.749-4.992c-1.759-.689-3.711-.689-5.47 0l-12.749 4.992zm-128.37-63.461h235.917c4.613 0 8.365 3.753 8.365 8.365s-3.752 8.365-8.365 8.365h-332.64c-34.647 0-62.835-28.188-62.835-62.836s28.188-62.835 62.835-62.835h332.25c-1.853 4.974-5.277 12.025-6.429 16.73h-325.821c-25.422 0-46.105 20.683-46.105 46.105s20.683 46.104 46.105 46.104h61.723c4.142 0 7.5-3.357 7.5-7.5s-3.358-7.5-7.5-7.5h-61.723c-17.151 0-31.105-13.953-31.105-31.104s13.954-31.105 31.105-31.105h27.421v41.682c0 2.479 1.225 4.798 3.273 6.195 2.047 1.397 4.654 1.693 6.962.788l20.249-7.929 20.249 7.929c.884.347 1.811.517 2.734.517 1.488 0 2.964-.442 4.228-1.305 2.048-1.397 3.273-3.716 3.273-6.195v-41.682h228.118c-6.568 20.311-6.568 41.899 0 62.21h-219.784c-4.142 0-7.5 3.357-7.5 7.5s3.358 7.501 7.5 7.501zm-54.302-77.21h30.968v30.69l-12.749-4.992c-1.759-.689-3.711-.689-5.47 0l-12.749 4.992zm349.204-6.987c-.551.819-2.15 2.724-5.074 2.724h-40.044c-2.924 0-4.522-1.905-5.074-2.724-1.204-1.787-1.428-3.961-.616-5.963l15.344-37.822c3.235 1.195 6.727 1.847 10.368 1.847s7.133-.652 10.368-1.847l15.343 37.822c.813 2.003.589 4.176-.615 5.963z"></path></svg>