<svg xmlns="http://www.w3.org/2000/svg" id="Capa_1" height="512" viewBox="0 0 512 512" width="512"><g><g><path d="m512 300.447c0-54.266-44.148-98.415-98.415-98.415h-157.654l1.298-45.613h12.91c4.143 0 7.5-3.358 7.5-7.5v-30.3c0-4.142-3.357-7.5-7.5-7.5h-48.159c-4.143 0-7.5 3.358-7.5 7.5s3.357 7.5 7.5 7.5h40.659v15.3h-247.639v-15.3h171.98c4.143 0 7.5-3.358 7.5-7.5s-3.357-7.5-7.5-7.5h-25.507v-65.814h43.008c4.143 0 7.5-3.358 7.5-7.5v-30.305c0-4.142-3.357-7.5-7.5-7.5h-60.609c-15.275 0-27.703 12.428-27.703 27.703v83.417h-108.669c-4.143 0-7.5 3.358-7.5 7.5v30.3c0 4.142 3.357 7.5 7.5 7.5h12.91l6.283 221.163c.115 4.068 3.449 7.287 7.493 7.287.072 0 .145-.001.217-.003 4.141-.118 7.401-3.57 7.284-7.71l-6.271-220.737h206.807l-1.316 46.237c-49.082 5.511-87.362 47.261-87.362 97.79v10.102c0 6.467 2.233 12.418 5.961 17.137-3.646 3.227-5.961 7.927-5.961 13.167v30.305c0 3.451 1.013 6.663 2.735 9.382-1.722 2.506-2.735 5.536-2.735 8.8v14.143c0 2.961.845 5.721 2.285 8.081-1.44 2.36-2.285 5.12-2.285 8.081v16.163c0 3.847 1.409 7.367 3.728 10.088-2.355 3.463-3.733 7.64-3.733 12.133v32.33c0 2.316.37 4.546 1.047 6.64h-97.147c-6.922 0-12.497-5.421-12.693-12.343l-2.06-72.52c-.117-4.141-3.555-7.399-7.71-7.284-4.141.118-7.401 3.569-7.284 7.71l2.06 72.52c.428 15.094 12.59 26.918 27.687 26.918h356.6c4.143 0 7.5-3.358 7.5-7.5s-3.357-7.5-7.5-7.5h-238.85c-3.667 0-6.65-2.979-6.65-6.64v-32.33c0-3.661 2.983-6.64 6.65-6.64h157.582 157.588c3.661 0 6.64 2.979 6.64 6.64v32.33c0 3.662-2.979 6.64-6.64 6.64h-41.32c-4.143 0-7.5 3.358-7.5 7.5s3.357 7.5 7.5 7.5h41.32c11.932 0 21.64-9.708 21.64-21.64v-32.33c0-4.492-1.377-8.669-3.73-12.131 2.32-2.721 3.73-6.241 3.73-10.09v-16.163c0-2.961-.845-5.722-2.285-8.081 1.44-2.36 2.285-5.12 2.285-8.081v-14.143c0-3.264-1.013-6.294-2.735-8.8 1.723-2.72 2.735-5.932 2.735-9.382v-30.305c0-5.241-2.315-9.94-5.961-13.167 3.728-4.719 5.961-10.671 5.961-17.137zm-380.831-272.744c0-7.004 5.698-12.703 12.703-12.703h53.109v15.305h-43.008c-4.143 0-7.5 3.358-7.5 7.5v73.315h-15.305v-83.417zm37.376 272.744c0-45.995 37.419-83.415 83.414-83.415h161.626c45.995 0 83.415 37.419 83.415 83.415v10.102c0 7.004-5.698 12.703-12.703 12.703h-303.049c-7.005 0-12.703-5.699-12.703-12.703zm325.853 37.805c1.435 0 2.602 1.167 2.602 2.602v30.305c0 1.435-1.167 2.602-2.602 2.602h-323.252c-1.435 0-2.602-1.167-2.602-2.602v-30.305c0-1.435 1.167-2.602 2.602-2.602zm2.021 50.508c.32 0 .581.261.581.581v14.143c0 .32-.261.581-.581.581h-163.647-163.646c-.32 0-.581-.261-.581-.581v-14.143c0-.32.261-.581.581-.581h2.021 323.252zm-327.293 47.63c-.32 0-.581-.261-.581-.581v-16.163c0-.321.261-.582.581-.582h156.146v17.325h-156.146zm171.146 0v-17.325h156.146c.32 0 .581.261.581.582v16.163c0 .32-.261.581-.581.581h-156.146z"></path><circle cx="313.169" cy="249.847" r="7.5"></circle><circle cx="372.898" cy="278.005" r="7.5"></circle><circle cx="421.142" cy="260.086" r="7.5"></circle><circle cx="295.251" cy="293.363" r="7.5"></circle><circle cx="233.816" cy="278.005" r="7.5"></circle></g></g></svg>