<svg xmlns="http://www.w3.org/2000/svg" id="Capa_1" height="512" viewBox="0 0 511 511" width="512"><g><path d="m511 119v-79h-384.5v15h369.5v49h-481v-49h96.5v-15h-111.5v79h24v241h-24v111h392.5v-15h-49.5v-32h-16v-32h-143v32h-16v32h-153v-81h481v81h-88.5v15h103.5v-111h-24v-241zm-312 288h113v17h-113zm-16 32h145v17h-145zm240-309.393 38.393 38.393h-38.393zm0 53.393h38.393l-38.393 38.393zm0 74.607 38.393 38.393h-38.393zm-47-97.136c0 2.529-.985 4.907-2.774 6.696l-13.726 13.726-13.393-13.393 13.726-13.726c1.789-1.789 4.167-2.774 6.696-2.774 2.53 0 4.908.985 6.697 2.774 1.789 1.788 2.774 4.166 2.774 6.697zm-238.226-6.698c1.788-1.788 4.166-2.773 6.696-2.773 2.529 0 4.907.985 6.696 2.774l13.726 13.726-13.392 13.393-13.726-13.726c-1.789-1.789-2.774-4.167-2.774-6.696 0-2.531.985-4.909 2.774-6.698zm-98.774-24.166 38.393 38.393h-38.393zm0 53.393h38.393l-38.393 38.393zm0 74.607 38.393 38.393h-38.393zm0 53.393h38.393l-38.393 38.393zm49 49h-38.393l38.393-38.393zm0-74.607-38.393-38.393h38.393zm0-53.393h-38.393l38.393-38.393zm0-74.607-38.393-38.393h38.393zm320 202.607h-305v-17h305zm0-32h-305v-209h25v23.375c-.282.257-.56.521-.832.792-4.622 4.622-7.168 10.767-7.168 17.304 0 6.536 2.545 12.682 7.167 17.304l13.726 13.726-6.696 6.696 10.607 10.607 48-48-10.607-10.607-6.696 6.696-13.726-13.726c-4.622-4.622-10.768-7.167-17.304-7.167-.493 0-.983.02-1.471.048v-17.048h225v17.048c-.488-.028-.978-.048-1.471-.048-6.536 0-12.682 2.545-17.304 7.167l-13.725 13.726-6.696-6.696-10.607 10.607 48 48 10.607-10.607-6.696-6.696 13.726-13.726c4.622-4.622 7.167-10.768 7.167-17.304 0-6.537-2.546-12.682-7.167-17.303-.272-.272-.551-.536-.833-.793v-23.375h25v209zm15-17h38.393l-38.393 38.393zm49 49h-38.393l38.393-38.393zm0-74.607-38.393-38.393h38.393zm0-53.393h-38.393l38.393-38.393zm0-74.607-38.393-38.393h38.393z"></path><path d="m232.5 72h16v15h-16z"></path><path d="m262.5 72h16v15h-16z"></path></g></svg>