<svg xmlns="http://www.w3.org/2000/svg" viewBox="0 0 110.66 31.39"><title>Asset 1</title><path d="M32.85,2.38q2.22,2.37,2.22,6.74V21.36H29.75V9.73A5.3,5.3,0,0,0,28.52,6a4.46,4.46,0,0,0-3.4-1.31,4.65,4.65,0,0,0-3.57,1.41,5.75,5.75,0,0,0-1.33,4.1V21.36H14.9V9.73A5.3,5.3,0,0,0,13.66,6a4.46,4.46,0,0,0-3.4-1.31A4.65,4.65,0,0,0,6.69,6.08a5.75,5.75,0,0,0-1.33,4.1V21.36H0V.3H5.36v4A6.6,6.6,0,0,1,8,1.12,7.76,7.76,0,0,1,12.2,0a7.94,7.94,0,0,1,4.42,1.22,7.43,7.43,0,0,1,2.84,3.49A7.93,7.93,0,0,1,26.79,0,7.87,7.87,0,0,1,32.85,2.38Z" fill="#f05537"/><path d="M57.49,11.86H42.07A5.77,5.77,0,0,0,43.59,16a4.86,4.86,0,0,0,3.49,1.33,5.15,5.15,0,0,0,3.1-.91A4.07,4.07,0,0,0,51.76,14h5.66a9.12,9.12,0,0,1-1.79,3.95,9.26,9.26,0,0,1-3.51,2.73,11.25,11.25,0,0,1-4.77,1,11.12,11.12,0,0,1-5.47-1.31,9.2,9.2,0,0,1-3.73-3.74,11.76,11.76,0,0,1-1.33-5.74,11.89,11.89,0,0,1,1.33-5.76,9.08,9.08,0,0,1,3.73-3.74A11.33,11.33,0,0,1,47.35,0,11.12,11.12,0,0,1,52.8,1.33a9.13,9.13,0,0,1,3.61,3.55A10.32,10.32,0,0,1,57.68,10,10,10,0,0,1,57.49,11.86ZM50.94,5.59a5.13,5.13,0,0,0-3.59-1.33A5.25,5.25,0,0,0,43.7,5.59,5.41,5.41,0,0,0,42.07,9.5H52.29A4.74,4.74,0,0,0,50.94,5.59Z" fill="#f05537"/><path d="M79.72.3V21.36H74.37V17.1a6.68,6.68,0,0,1-2.76,3.32,8.17,8.17,0,0,1-4.43,1.2,7.46,7.46,0,0,1-5.81-2.39,9.65,9.65,0,0,1-2.17-6.69V.3h5.32V11.93a5.49,5.49,0,0,0,1.3,3.9,4.54,4.54,0,0,0,3.49,1.38A4.78,4.78,0,0,0,73,15.73a6,6,0,0,0,1.37-4.25V.3Z" fill="#f05537"/><path d="M100.05,1.33a8.75,8.75,0,0,1,3.33,3.74,13,13,0,0,1,1.2,5.76,13,13,0,0,1-1.2,5.76,8.75,8.75,0,0,1-3.33,3.74,9,9,0,0,1-4.79,1.29,7.92,7.92,0,0,1-4.54-1.27A7,7,0,0,1,88,17V31.39H82.69V.3H88V4.67a7,7,0,0,1,2.68-3.38A8.06,8.06,0,0,1,95.26,0,9,9,0,0,1,100.05,1.33Zm-10.47,5A6.24,6.24,0,0,0,88,10.83a6.15,6.15,0,0,0,1.57,4.43,5.76,5.76,0,0,0,8,0,6.25,6.25,0,0,0,1.52-4.46,6.33,6.33,0,0,0-1.52-4.48,5.25,5.25,0,0,0-4-1.64A5.31,5.31,0,0,0,89.58,6.36Z" fill="#f05537"/><circle cx="107.84" cy="18.54" r="2.82" fill="#f05537"/></svg>